# This file uses centimeters as units for non-parametric coordinates.

mtllib abstructtree.mtl
g default
v -9.654777 1.540601 -2.911619
v -8.085848 1.540601 -2.911619
v -9.654777 3.109530 -2.911619
v -8.085848 3.109530 -2.911619
v -9.654777 3.109530 -4.480549
v -8.085848 3.109530 -4.480549
v -9.654777 1.540601 -4.480548
v -8.085848 1.540601 -4.480549
v -9.929339 3.384092 -3.696084
v -7.811285 2.325065 -4.755111
v -8.870312 1.266038 -4.755111
v -9.929339 2.325065 -4.755111
v -7.811285 1.266038 -3.696084
v -9.929339 1.266038 -3.696084
v -8.870312 1.266038 -2.637057
v -7.811285 2.325065 -2.637057
v -8.870312 3.384092 -2.637057
v -9.929339 2.325065 -2.637057
v -7.811285 3.384092 -3.696084
v -8.870312 3.384092 -4.755111
v -8.870312 2.325065 -2.284048
v -8.870312 3.737101 -3.696084
v -8.870312 2.325065 -5.108120
v -8.870312 0.913029 -3.696084
v -7.458276 2.325065 -3.696084
v -10.282348 2.325065 -3.696084
vt 0.375000 0.000000
vt 0.375000 1.000000
vt 0.625000 0.000000
vt 0.625000 1.000000
vt 0.375000 0.250000
vt 0.625000 0.250000
vt 0.375000 0.500000
vt 0.125000 0.250000
vt 0.625000 0.500000
vt 0.875000 0.250000
vt 0.375000 0.750000
vt 0.125000 0.000000
vt 0.625000 0.750000
vt 0.875000 0.000000
vt 0.500000 0.125000
vt 0.500000 0.375000
vt 0.500000 0.625000
vt 0.500000 0.875000
vt 0.750000 0.125000
vt 0.250000 0.125000
vt 0.500000 0.000000
vt 0.500000 1.000000
vt 0.625000 0.125000
vt 0.500000 0.250000
vt 0.375000 0.125000
vt 0.625000 0.375000
vt 0.750000 0.250000
vt 0.500000 0.500000
vt 0.375000 0.375000
vt 0.250000 0.250000
vt 0.625000 0.625000
vt 0.875000 0.125000
vt 0.500000 0.750000
vt 0.375000 0.625000
vt 0.125000 0.125000
vt 0.625000 0.875000
vt 0.750000 0.000000
vt 0.375000 0.875000
vt 0.250000 0.000000
vn -0.577350 -0.577350 0.577350
vn 0.000000 -0.707107 0.707107
vn 0.000000 0.000000 1.000000
vn -0.707107 0.000000 0.707107
vn 0.577350 -0.577350 0.577350
vn 0.707107 0.000000 0.707107
vn 0.577350 0.577350 0.577350
vn -0.000000 0.707107 0.707107
vn -0.577350 0.577350 0.577350
vn -0.000000 1.000000 0.000000
vn -0.707107 0.707107 0.000000
vn 0.707107 0.707107 0.000000
vn 0.577350 0.577350 -0.577350
vn 0.000000 0.707107 -0.707107
vn -0.577350 0.577350 -0.577350
vn 0.000000 -0.000000 -1.000000
vn -0.707107 -0.000000 -0.707107
vn 0.707107 0.000000 -0.707107
vn 0.577350 -0.577350 -0.577350
vn 0.000000 -0.707107 -0.707107
vn -0.577350 -0.577350 -0.577350
vn 0.000000 -1.000000 -0.000000
vn -0.707107 -0.707107 0.000000
vn 0.707107 -0.707107 -0.000000
vn 1.000000 0.000000 0.000000
vn -1.000000 0.000000 0.000000
s 1
g pCube1
usemtl initialShadingGroup
f 1/1/1 15/21/2 21/15/3 18/25/4
f 15/21/2 2/3/5 16/23/6 21/15/3
f 21/15/3 16/23/6 4/6/7 17/24/8
f 18/25/4 21/15/3 17/24/8 3/5/9
f 3/5/9 17/24/8 22/16/10 9/29/11
f 17/24/8 4/6/7 19/26/12 22/16/10
f 22/16/10 19/26/12 6/9/13 20/28/14
f 9/29/11 22/16/10 20/28/14 5/7/15
f 5/7/15 20/28/14 23/17/16 12/34/17
f 20/28/14 6/9/13 10/31/18 23/17/16
f 23/17/16 10/31/18 8/13/19 11/33/20
f 12/34/17 23/17/16 11/33/20 7/11/21
f 7/11/21 11/33/20 24/18/22 14/38/23
f 11/33/20 8/13/19 13/36/24 24/18/22
f 24/18/22 13/36/24 2/4/5 15/22/2
f 14/38/23 24/18/22 15/22/2 1/2/1
f 2/3/5 13/37/24 25/19/25 16/23/6
f 13/37/24 8/14/19 10/32/18 25/19/25
f 25/19/25 10/32/18 6/10/13 19/27/12
f 16/23/6 25/19/25 19/27/12 4/6/7
f 7/12/21 14/39/23 26/20/26 12/35/17
f 14/39/23 1/1/1 18/25/4 26/20/26
f 26/20/26 18/25/4 3/5/9 9/30/11
f 12/35/17 26/20/26 9/30/11 5/8/15
g default
v -8.785423 0.170514 -3.740213
v -8.807068 0.170514 -3.782695
v -8.840781 0.170514 -3.816408
v -8.883263 0.170514 -3.838054
v -8.930354 0.170514 -3.845512
v -8.977445 0.170514 -3.838054
v -9.019926 0.170514 -3.816408
v -9.053639 0.170514 -3.782695
v -9.075285 0.170514 -3.740213
v -9.082743 0.170514 -3.693123
v -9.075285 0.170514 -3.646032
v -9.053639 0.170514 -3.603550
v -9.019926 0.170514 -3.569837
v -8.977445 0.170514 -3.548192
v -8.930354 0.170514 -3.540733
v -8.883263 0.170514 -3.548192
v -8.840781 0.170514 -3.569837
v -8.807068 0.170514 -3.603550
v -8.785423 0.170514 -3.646032
v -8.777964 0.170514 -3.693123
v -8.785423 1.048388 -3.740213
v -8.807068 1.048388 -3.782695
v -8.840781 1.048388 -3.816408
v -8.883263 1.048388 -3.838054
v -8.930354 1.048388 -3.845512
v -8.977445 1.048388 -3.838054
v -9.019926 1.048388 -3.816408
v -9.053639 1.048388 -3.782695
v -9.075285 1.048388 -3.740213
v -9.082743 1.048388 -3.693123
v -9.075285 1.048388 -3.646032
v -9.053639 1.048388 -3.603550
v -9.019926 1.048388 -3.569837
v -8.977445 1.048388 -3.548192
v -8.930354 1.048388 -3.540733
v -8.883263 1.048388 -3.548192
v -8.840781 1.048388 -3.569837
v -8.807068 1.048388 -3.603550
v -8.785423 1.048388 -3.646032
v -8.777964 1.048388 -3.693123
v -8.930354 0.170514 -3.693123
v -8.930354 1.048388 -3.693123
vt 0.648603 0.107966
vt 0.626409 0.064408
vt 0.591842 0.029841
vt 0.548284 0.007647
vt 0.500000 -0.000000
vt 0.451716 0.007647
vt 0.408159 0.029841
vt 0.373591 0.064409
vt 0.351397 0.107966
vt 0.343750 0.156250
vt 0.351397 0.204534
vt 0.373591 0.248091
vt 0.408159 0.282659
vt 0.451716 0.304853
vt 0.500000 0.312500
vt 0.548284 0.304853
vt 0.591841 0.282659
vt 0.626409 0.248091
vt 0.648603 0.204534
vt 0.656250 0.156250
vt 0.375000 0.312500
vt 0.387500 0.312500
vt 0.400000 0.312500
vt 0.412500 0.312500
vt 0.425000 0.312500
vt 0.437500 0.312500
vt 0.450000 0.312500
vt 0.462500 0.312500
vt 0.475000 0.312500
vt 0.487500 0.312500
vt 0.500000 0.312500
vt 0.512500 0.312500
vt 0.525000 0.312500
vt 0.537500 0.312500
vt 0.550000 0.312500
vt 0.562500 0.312500
vt 0.575000 0.312500
vt 0.587500 0.312500
vt 0.600000 0.312500
vt 0.612500 0.312500
vt 0.625000 0.312500
vt 0.375000 0.688440
vt 0.387500 0.688440
vt 0.400000 0.688440
vt 0.412500 0.688440
vt 0.425000 0.688440
vt 0.437500 0.688440
vt 0.450000 0.688440
vt 0.462500 0.688440
vt 0.475000 0.688440
vt 0.487500 0.688440
vt 0.500000 0.688440
vt 0.512500 0.688440
vt 0.525000 0.688440
vt 0.537500 0.688440
vt 0.550000 0.688440
vt 0.562500 0.688440
vt 0.575000 0.688440
vt 0.587500 0.688440
vt 0.600000 0.688440
vt 0.612500 0.688440
vt 0.625000 0.688440
vt 0.648603 0.795466
vt 0.626409 0.751908
vt 0.591842 0.717341
vt 0.548284 0.695147
vt 0.500000 0.687500
vt 0.451716 0.695147
vt 0.408159 0.717341
vt 0.373591 0.751909
vt 0.351397 0.795466
vt 0.343750 0.843750
vt 0.351397 0.892034
vt 0.373591 0.935591
vt 0.408159 0.970159
vt 0.451716 0.992353
vt 0.500000 1.000000
vt 0.548284 0.992353
vt 0.591841 0.970159
vt 0.626409 0.935591
vt 0.648603 0.892034
vt 0.656250 0.843750
vt 0.500000 0.150000
vt 0.500000 0.837500
vn 0.951057 0.000000 -0.309016
vn 0.809017 0.000000 -0.587785
vn 0.809017 0.000000 -0.587785
vn 0.951057 0.000000 -0.309016
vn 0.587785 0.000000 -0.809017
vn 0.587785 0.000000 -0.809017
vn 0.309017 0.000000 -0.951057
vn 0.309017 0.000000 -0.951057
vn -0.000000 0.000000 -1.000000
vn -0.000000 0.000000 -1.000000
vn -0.309017 0.000000 -0.951056
vn -0.309017 0.000000 -0.951056
vn -0.587785 0.000000 -0.809017
vn -0.587785 0.000000 -0.809017
vn -0.809017 0.000000 -0.587785
vn -0.809017 0.000000 -0.587785
vn -0.951056 0.000000 -0.309017
vn -0.951056 0.000000 -0.309017
vn -1.000000 0.000000 0.000000
vn -1.000000 0.000000 0.000000
vn -0.951057 0.000000 0.309017
vn -0.951057 0.000000 0.309017
vn -0.809017 0.000000 0.587785
vn -0.809017 0.000000 0.587785
vn -0.587785 0.000000 0.809017
vn -0.587785 0.000000 0.809017
vn -0.309017 0.000000 0.951057
vn -0.309017 0.000000 0.951057
vn 0.000000 0.000000 1.000000
vn 0.000000 0.000000 1.000000
vn 0.309017 0.000000 0.951056
vn 0.309017 0.000000 0.951056
vn 0.587785 0.000000 0.809017
vn 0.587785 0.000000 0.809017
vn 0.809017 0.000000 0.587785
vn 0.809017 0.000000 0.587785
vn 0.951057 0.000000 0.309017
vn 0.951057 0.000000 0.309017
vn 1.000000 0.000000 0.000001
vn 1.000000 0.000000 0.000001
vn 0.000000 -1.000000 0.000000
vn 0.000000 -1.000000 0.000000
vn 0.000000 -1.000000 0.000000
vn 0.000000 -1.000000 0.000000
vn 0.000000 -1.000000 0.000000
vn 0.000000 -1.000000 0.000000
vn 0.000000 -1.000000 0.000000
vn 0.000000 -1.000000 0.000000
vn 0.000000 -1.000000 0.000000
vn 0.000000 -1.000000 0.000000
vn 0.000000 -1.000000 0.000000
vn 0.000000 -1.000000 0.000000
vn 0.000000 -1.000000 0.000000
vn 0.000000 -1.000000 0.000000
vn 0.000000 -1.000000 0.000000
vn 0.000000 -1.000000 0.000000
vn 0.000000 -1.000000 0.000000
vn 0.000000 -1.000000 0.000000
vn 0.000000 -1.000000 0.000000
vn 0.000000 -1.000000 0.000000
vn 0.000000 -1.000000 0.000000
vn 0.000000 1.000000 0.000000
vn 0.000000 1.000000 0.000000
vn 0.000000 1.000000 0.000000
vn 0.000000 1.000000 0.000000
vn 0.000000 1.000000 0.000000
vn 0.000000 1.000000 0.000000
vn 0.000000 1.000000 0.000000
vn 0.000000 1.000000 0.000000
vn 0.000000 1.000000 0.000000
vn 0.000000 1.000000 0.000000
vn 0.000000 1.000000 0.000000
vn 0.000000 1.000000 0.000000
vn 0.000000 1.000000 0.000000
vn 0.000000 1.000000 0.000000
vn 0.000000 1.000000 0.000000
vn 0.000000 1.000000 0.000000
vn 0.000000 1.000000 0.000000
vn 0.000000 1.000000 0.000000
vn 0.000000 1.000000 0.000000
vn 0.000000 1.000000 0.000000
vn 0.000000 1.000000 0.000000
s 1
g pCylinder11
usemtl initialShadingGroup
f 27/60/27 28/61/28 48/82/29 47/81/30
f 28/61/28 29/62/31 49/83/32 48/82/29
f 29/62/31 30/63/33 50/84/34 49/83/32
f 30/63/33 31/64/35 51/85/36 50/84/34
f 31/64/35 32/65/37 52/86/38 51/85/36
f 32/65/37 33/66/39 53/87/40 52/86/38
f 33/66/39 34/67/41 54/88/42 53/87/40
f 34/67/41 35/68/43 55/89/44 54/88/42
f 35/68/43 36/69/45 56/90/46 55/89/44
f 36/69/45 37/70/47 57/91/48 56/90/46
f 37/70/47 38/71/49 58/92/50 57/91/48
f 38/71/49 39/72/51 59/93/52 58/92/50
f 39/72/51 40/73/53 60/94/54 59/93/52
f 40/73/53 41/74/55 61/95/56 60/94/54
f 41/74/55 42/75/57 62/96/58 61/95/56
f 42/75/57 43/76/59 63/97/60 62/96/58
f 43/76/59 44/77/61 64/98/62 63/97/60
f 44/77/61 45/78/63 65/99/64 64/98/62
f 45/78/63 46/79/65 66/100/66 65/99/64
f 46/79/65 27/80/27 47/101/30 66/100/66
s 2
f 28/41/67 27/40/68 67/122/69
f 29/42/70 28/41/67 67/122/69
f 30/43/71 29/42/70 67/122/69
f 31/44/72 30/43/71 67/122/69
f 32/45/73 31/44/72 67/122/69
f 33/46/74 32/45/73 67/122/69
f 34/47/75 33/46/74 67/122/69
f 35/48/76 34/47/75 67/122/69
f 36/49/77 35/48/76 67/122/69
f 37/50/78 36/49/77 67/122/69
f 38/51/79 37/50/78 67/122/69
f 39/52/80 38/51/79 67/122/69
f 40/53/81 39/52/80 67/122/69
f 41/54/82 40/53/81 67/122/69
f 42/55/83 41/54/82 67/122/69
f 43/56/84 42/55/83 67/122/69
f 44/57/85 43/56/84 67/122/69
f 45/58/86 44/57/85 67/122/69
f 46/59/87 45/58/86 67/122/69
f 27/40/68 46/59/87 67/122/69
s 3
f 47/120/88 48/119/89 68/123/90
f 48/119/89 49/118/91 68/123/90
f 49/118/91 50/117/92 68/123/90
f 50/117/92 51/116/93 68/123/90
f 51/116/93 52/115/94 68/123/90
f 52/115/94 53/114/95 68/123/90
f 53/114/95 54/113/96 68/123/90
f 54/113/96 55/112/97 68/123/90
f 55/112/97 56/111/98 68/123/90
f 56/111/98 57/110/99 68/123/90
f 57/110/99 58/109/100 68/123/90
f 58/109/100 59/108/101 68/123/90
f 59/108/101 60/107/102 68/123/90
f 60/107/102 61/106/103 68/123/90
f 61/106/103 62/105/104 68/123/90
f 62/105/104 63/104/105 68/123/90
f 63/104/105 64/103/106 68/123/90
f 64/103/106 65/102/107 68/123/90
f 65/102/107 66/121/108 68/123/90
f 66/121/108 47/120/88 68/123/90
